<svg xmlns="http://www.w3.org/2000/svg" viewBox="0 0 128 128">
  <defs>
    <linearGradient id="farmGrad" x1="0%" y1="0%" x2="100%" y2="100%">
      <stop offset="0%" style="stop-color:#2E7D32"/>
      <stop offset="100%" style="stop-color:#4CAF50"/>
    </linearGradient>
  </defs>
  <!-- Background -->
  <rect width="128" height="128" rx="16" fill="url(#farmGrad)"/>
  <!-- Farm House -->
  <path d="M64 25 L95 50 L95 95 L33 95 L33 50 Z" fill="#fff" opacity="0.9"/>
  <!-- Roof -->
  <path d="M64 15 L105 50 L95 50 L64 25 L33 50 L23 50 Z" fill="#8D6E63"/>
  <!-- Door -->
  <rect x="56" y="65" width="16" height="30" fill="#5D4037"/>
  <!-- Windows -->
  <rect x="40" y="55" width="12" height="12" fill="#81D4FA"/>
  <rect x="76" y="55" width="12" height="12" fill="#81D4FA"/>
  <!-- Sun -->
  <circle cx="100" cy="30" r="12" fill="#FFC107"/>
  <!-- Plant -->
  <path d="M20 95 Q25 80 30 85 Q25 75 35 78 Q28 70 40 75" stroke="#4CAF50" stroke-width="3" fill="none"/>
  <path d="M108 95 Q103 80 98 85 Q103 75 93 78 Q100 70 88 75" stroke="#4CAF50" stroke-width="3" fill="none"/>
</svg>

